<mxGraphModel dx="1006" dy="597" grid="1" gridSize="10" guides="1" tooltips="1" connect="1" arrows="1" fold="1" page="1" pageScale="1" pageWidth="827" pageHeight="1169" math="0" shadow="0">
  <root>
    <mxCell id="0"/>
    <mxCell id="1" parent="0"/>
    
    <!-- Users Table -->
    <mxCell id="2" value="Users&#xa;(user_id [PK], name, email)" style="shape=rectangle;fillColor=#ADD8E6;strokeColor=#000000;" vertex="1" parent="1">
      <mxGeometry x="50" y="50" width="180" height="80" as="geometry"/>
    </mxCell>

    <!-- Configurations Table -->
    <mxCell id="3" value="Configurations&#xa;(config_id [PK], user_id [FK])" style="shape=rectangle;fillColor=#ADD8E6;strokeColor=#000000;" vertex="1" parent="1">
      <mxGeometry x="300" y="50" width="200" height="80" as="geometry"/>
    </mxCell>

    <!-- Processors Table -->
    <mxCell id="4" value="Processors&#xa;(cpu_id [PK], model, socket, power)" style="shape=rectangle;fillColor=#ADD8E6;strokeColor=#000000;" vertex="1" parent="1">
      <mxGeometry x="600" y="50" width="200" height="80" as="geometry"/>
    </mxCell>

    <!-- Motherboards Table -->
    <mxCell id="5" value="Motherboards&#xa;(mb_id [PK], model, socket, ram_type, max_ram_speed)" style="shape=rectangle;fillColor=#ADD8E6;strokeColor=#000000;" vertex="1" parent="1">
      <mxGeometry x="600" y="150" width="200" height="80" as="geometry"/>
    </mxCell>

    <!-- RAMs Table -->
    <mxCell id="6" value="RAMs&#xa;(ram_id [PK], model, type, speed)" style="shape=rectangle;fillColor=#ADD8E6;strokeColor=#000000;" vertex="1" parent="1">
      <mxGeometry x="600" y="250" width="200" height="80" as="geometry"/>
    </mxCell>

    <!-- GPUs Table -->
    <mxCell id="7" value="GPUs&#xa;(gpu_id [PK], model, power, pcie_version)" style="shape=rectangle;fillColor=#ADD8E6;strokeColor=#000000;" vertex="1" parent="1">
      <mxGeometry x="600" y="350" width="200" height="80" as="geometry"/>
    </mxCell>

    <!-- PSUs Table -->
    <mxCell id="8" value="PSUs&#xa;(psu_id [PK], model, wattage)" style="shape=rectangle;fillColor=#ADD8E6;strokeColor=#000000;" vertex="1" parent="1">
      <mxGeometry x="600" y="450" width="200" height="80" as="geometry"/>
    </mxCell>

    <!-- Edges (Relationships) -->
    <mxCell id="9" edge="1" source="2" target="3" style="edgeStyle=orthogonalEdgeStyle;strokeColor=#000000;">
      <mxGeometry relative="1" as="geometry"/>
    </mxCell>

    <mxCell id="10" edge="1" source="3" target="4" style="edgeStyle=orthogonalEdgeStyle;strokeColor=#000000;">
      <mxGeometry relative="1" as="geometry"/>
    </mxCell>

    <mxCell id="11" edge="1" source="3" target="5" style="edgeStyle=orthogonalEdgeStyle;strokeColor=#000000;">
      <mxGeometry relative="1" as="geometry"/>
    </mxCell>

    <mxCell id="12" edge="1" source="3" target="6" style="edgeStyle=orthogonalEdgeStyle;strokeColor=#000000;">
      <mxGeometry relative="1" as="geometry"/>
    </mxCell>

    <mxCell id="13" edge="1" source="3" target="7" style="edgeStyle=orthogonalEdgeStyle;strokeColor=#000000;">
      <mxGeometry relative="1" as="geometry"/>
    </mxCell>

    <mxCell id="14" edge="1" source="3" target="8" style="edgeStyle=orthogonalEdgeStyle;strokeColor=#000000;">
      <mxGeometry relative="1" as="geometry"/>
    </mxCell>

  </root>
</mxGraphModel>
